<svg width="50" height="50" viewBox="0 0 50 50" fill="none" xmlns="http://www.w3.org/2000/svg">
<rect x="0.5" y="0.5" width="49" height="49" rx="9.5" fill="#E8DDD9"/>
<rect x="0.5" y="0.5" width="49" height="49" rx="9.5" stroke="#C9B8B2"/>
<path d="M18.92 28.3L22.86 26.1L22.92 25.9L22.86 25.8H22.66L22 25.76L19.76 25.7L17.8 25.6L15.9 25.5L15.42 25.4L15 24.8L15.04 24.5L15.44 24.24L16.02 24.28L17.28 24.38L19.18 24.5L20.56 24.58L22.6 24.82H22.92L22.96 24.68L22.86 24.6L22.78 24.52L20.8 23.2L18.68 21.8L17.56 20.98L16.96 20.58L16.66 20.18L16.54 19.34L17.08 18.74L17.82 18.8L18 18.84L18.74 19.42L20.34 20.64L22.4 22.2L22.7 22.44L22.82 22.36L22.84 22.3L22.7 22.08L21.6 20L20.4 17.92L19.86 17.06L19.72 16.54C19.66 16.34 19.64 16.14 19.64 15.94L20.24 15.1L20.6 15L21.44 15.12L21.76 15.4L22.28 16.6L23.1 18.46L24.4 20.98L24.8 21.74L25 22.42L25.06 22.62H25.2V22.52L25.3 21.08L25.5 19.34L25.7 17.1L25.76 16.46L26.08 15.7L26.68 15.3L27.2 15.52L27.6 16.1L27.54 16.46L27.32 18L26.8 20.42L26.5 22.06H26.68L26.88 21.84L27.7 20.76L29.08 19.04L29.68 18.34L30.4 17.6L30.86 17.24H31.72L32.34 18.18L32.06 19.16L31.18 20.28L30.44 21.22L29.38 22.64L28.74 23.78L28.8 23.86H28.94L31.34 23.34L32.62 23.12L34.14 22.86L34.84 23.18L34.92 23.5L34.64 24.18L33 24.58L31.08 24.98L28.22 25.64L28.18 25.66L28.22 25.72L29.5 25.84L30.06 25.88H31.42L33.94 26.08L34.6 26.48L34.98 27.02L34.92 27.42L33.9 27.94L32.54 27.62L29.34 26.86L28.26 26.6H28.1V26.68L29.02 27.58L30.68 29.08L32.8 31.02L32.9 31.5L32.64 31.9L32.36 31.86L30.52 30.46L29.8 29.86L28.2 28.5H28.1V28.64L28.46 29.18L30.42 32.12L30.52 33.02L30.38 33.3L29.86 33.5L29.32 33.38L28.16 31.78L26.96 29.98L26.02 28.34L25.92 28.42L25.34 34.46L25.08 34.76L24.48 35L23.98 34.6L23.7 34L23.98 32.76L24.3 31.16L24.56 29.88L24.8 28.3L24.94 27.78V27.74H24.8L23.6 29.4L21.8 31.86L20.36 33.38L20.02 33.52L19.42 33.22L19.48 32.66L19.8 32.2L21.8 29.64L23 28.06L23.8 27.14L23.78 27.04H23.72L18.44 30.48L17.5 30.6L17.1 30.2L17.14 29.6L17.34 29.4L18.94 28.3H18.92Z" fill="#A07060"/>
</svg>
