<svg width="19" height="23" viewBox="0 0 19 23" fill="none" xmlns="http://www.w3.org/2000/svg">
<path d="M9.41309 22.6582C9.30176 22.6582 9.17578 22.6377 9.03516 22.5967C8.90039 22.5557 8.75977 22.4971 8.61328 22.4209C7.33594 21.7178 6.2168 21.0762 5.25586 20.4961C4.30078 19.9219 3.48633 19.3711 2.8125 18.8438C2.14453 18.3223 1.60254 17.792 1.18652 17.2529C0.776367 16.708 0.474609 16.1221 0.28125 15.4951C0.09375 14.8623 0 14.1475 0 13.3506V4.94824C0 4.48535 0.0585938 4.10742 0.175781 3.81445C0.292969 3.52148 0.474609 3.27832 0.720703 3.08496C0.972656 2.88574 1.29785 2.7041 1.69629 2.54004C1.95996 2.43457 2.30859 2.30273 2.74219 2.14453C3.17578 1.98047 3.65039 1.80469 4.16602 1.61719C4.6875 1.42383 5.20605 1.23633 5.72168 1.05469C6.2373 0.873047 6.70898 0.706055 7.13672 0.553711C7.57031 0.401367 7.91602 0.28418 8.17383 0.202148C8.37305 0.143555 8.57812 0.0966797 8.78906 0.0615234C9.00586 0.0205078 9.21387 0 9.41309 0C9.6123 0 9.81738 0.0175781 10.0283 0.0527344C10.2451 0.0878906 10.4502 0.137695 10.6436 0.202148C10.9014 0.290039 11.2471 0.410156 11.6807 0.5625C12.1143 0.708984 12.5889 0.873047 13.1045 1.05469C13.6201 1.23633 14.1357 1.4209 14.6514 1.6084C15.167 1.7959 15.6416 1.97168 16.0752 2.13574C16.5146 2.2998 16.8662 2.43457 17.1299 2.54004C17.5283 2.70996 17.8506 2.8916 18.0967 3.08496C18.3486 3.27832 18.5332 3.52148 18.6504 3.81445C18.7676 4.10742 18.8262 4.48535 18.8262 4.94824V13.3506C18.8262 14.1475 18.7324 14.8652 18.5449 15.5039C18.3574 16.1426 18.0586 16.7373 17.6484 17.2881C17.2441 17.8389 16.708 18.3779 16.04 18.9053C15.3721 19.4385 14.5576 19.9893 13.5967 20.5576C12.6357 21.126 11.5049 21.7471 10.2041 22.4209C10.0635 22.4971 9.92285 22.5557 9.78223 22.5967C9.6416 22.6377 9.51855 22.6582 9.41309 22.6582ZM4.33301 11.584C4.33301 11.7422 4.38574 11.8711 4.49121 11.9707C4.60254 12.0703 4.7373 12.1201 4.89551 12.1201H8.7627L6.69727 17.6221C6.59766 17.8799 6.60352 18.0908 6.71484 18.2549C6.82617 18.4189 6.98438 18.5039 7.18945 18.5098C7.39453 18.5156 7.58203 18.4131 7.75195 18.2021L14.1152 10.3096C14.25 10.1572 14.3174 9.99902 14.3174 9.83496C14.3174 9.67676 14.2617 9.54785 14.1504 9.44824C14.0449 9.34863 13.9102 9.29883 13.7461 9.29883H9.8877L11.9531 3.79688C12.0527 3.5332 12.0469 3.32227 11.9355 3.16406C11.8242 3 11.666 2.91504 11.4609 2.90918C11.2559 2.90332 11.0684 3.00293 10.8984 3.20801L4.52637 11.1094C4.39746 11.2617 4.33301 11.4199 4.33301 11.584Z" fill="currentColor"/>
</svg>
