<svg width="16" height="16" viewBox="0 0 16 16" fill="none" xmlns="http://www.w3.org/2000/svg">
<path d="M4.66675 11.3333V11.34M4.66675 4.66663V4.67329M11.3334 4.66663V4.67329M11.3334 9.33329H9.33341V11.3333M13.3334 9.33329V9.33996M9.33341 13.3333H11.3334M11.3334 11.3333H13.3334V13.3333M2.66675 3.33329C2.66675 3.15648 2.73699 2.98691 2.86201 2.86189C2.98703 2.73686 3.1566 2.66663 3.33341 2.66663H6.00008C6.17689 2.66663 6.34646 2.73686 6.47149 2.86189C6.59651 2.98691 6.66675 3.15648 6.66675 3.33329V5.99996C6.66675 6.17677 6.59651 6.34634 6.47149 6.47136C6.34646 6.59639 6.17689 6.66663 6.00008 6.66663H3.33341C3.1566 6.66663 2.98703 6.59639 2.86201 6.47136C2.73699 6.34634 2.66675 6.17677 2.66675 5.99996V3.33329ZM9.33341 3.33329C9.33341 3.15648 9.40365 2.98691 9.52868 2.86189C9.6537 2.73686 9.82327 2.66663 10.0001 2.66663H12.6667C12.8436 2.66663 13.0131 2.73686 13.1382 2.86189C13.2632 2.98691 13.3334 3.15648 13.3334 3.33329V5.99996C13.3334 6.17677 13.2632 6.34634 13.1382 6.47136C13.0131 6.59639 12.8436 6.66663 12.6667 6.66663H10.0001C9.82327 6.66663 9.6537 6.59639 9.52868 6.47136C9.40365 6.34634 9.33341 6.17677 9.33341 5.99996V3.33329ZM2.66675 9.99996C2.66675 9.82315 2.73699 9.65358 2.86201 9.52856C2.98703 9.40353 3.1566 9.33329 3.33341 9.33329H6.00008C6.17689 9.33329 6.34646 9.40353 6.47149 9.52856C6.59651 9.65358 6.66675 9.82315 6.66675 9.99996V12.6666C6.66675 12.8434 6.59651 13.013 6.47149 13.138C6.34646 13.2631 6.17689 13.3333 6.00008 13.3333H3.33341C3.1566 13.3333 2.98703 13.2631 2.86201 13.138C2.73699 13.013 2.66675 12.8434 2.66675 12.6666V9.99996Z" stroke="#004D13" stroke-width="1.5" stroke-linecap="round" stroke-linejoin="round"/>
</svg>
